<?xml version="1.0" standalone="no"?>
<!DOCTYPE svg PUBLIC "-//W3C//DTD SVG 20010904//EN"
 "http://www.w3.org/TR/2001/REC-SVG-20010904/DTD/svg10.dtd">
<svg version="1.0" xmlns="http://www.w3.org/2000/svg"
 width="32.000000pt" height="32.000000pt" viewBox="0 0 32.000000 32.000000"
 preserveAspectRatio="xMidYMid meet">

<g transform="translate(0.000000,32.000000) scale(0.100000,-0.100000)"
fill="#000000" stroke="none">
<path d="M130 287 c0 -8 -16 -30 -36 -49 -49 -48 -71 -148 -29 -132 7 3 22 1
32 -4 13 -8 24 -5 44 9 19 14 30 16 35 8 8 -13 -13 -29 -38 -29 -10 0 -18 -6
-18 -14 0 -8 -7 -17 -16 -20 -24 -9 -26 -8 -19 14 4 12 2 20 -5 20 -7 0 -10
-13 -8 -32 2 -27 8 -34 33 -39 24 -5 19 -7 -23 -8 -33 -1 -51 3 -47 9 9 15 -4
30 -20 23 -8 -3 -15 -14 -15 -24 0 -17 8 -19 74 -19 56 0 75 4 80 15 3 9 18
15 38 15 18 0 40 5 48 10 12 8 9 10 -12 10 -21 0 -28 6 -33 29 -3 17 -2 39 4
50 12 22 15 84 4 95 -4 3 -7 21 -7 39 -1 29 -4 32 -33 35 -24 2 -33 -1 -33
-11z m45 -57 c-1 -8 -7 -15 -13 -14 -7 1 -19 2 -27 3 -8 0 -12 7 -9 15 7 19
52 15 49 -4z"/>
<path d="M256 35 c-11 -8 -34 -15 -52 -15 -18 0 -35 -4 -38 -9 -3 -4 30 -9 74
-10 79 -2 80 -2 80 24 0 19 -5 25 -22 25 -13 0 -32 -7 -42 -15z"/>
</g>
</svg>
